<?xml version="1.0" encoding="UTF-8" standalone="no"?>
<!-- Created with Inkscape (http://www.inkscape.org/) -->
<svg
   xmlns:dc="http://purl.org/dc/elements/1.1/"
   xmlns:cc="http://web.resource.org/cc/"
   xmlns:rdf="http://www.w3.org/1999/02/22-rdf-syntax-ns#"
   xmlns:svg="http://www.w3.org/2000/svg"
   xmlns="http://www.w3.org/2000/svg"
   xmlns:sodipodi="http://sodipodi.sourceforge.net/DTD/sodipodi-0.dtd"
   xmlns:inkscape="http://www.inkscape.org/namespaces/inkscape"
   id="svg2"
   sodipodi:version="0.32"
   inkscape:version="0.45pre1"
   width="198"
   height="192"
   version="1.0"
   sodipodi:docbase="C:\Documents and Settings\Flanker\Desktop"
   sodipodi:docname="Star_of_life.png.svg"
   inkscape:output_extension="org.inkscape.output.svg.inkscape"
   sodipodi:modified="true">
  <metadata
     id="metadata7">
    <rdf:RDF>
      <cc:Work
         rdf:about="">
        <dc:format>image/svg+xml</dc:format>
        <dc:type
           rdf:resource="http://purl.org/dc/dcmitype/StillImage" />
      </cc:Work>
    </rdf:RDF>
  </metadata>
  <defs
     id="defs5" />
  <sodipodi:namedview
     inkscape:window-height="1003"
     inkscape:window-width="1280"
     inkscape:pageshadow="2"
     inkscape:pageopacity="0.0"
     guidetolerance="10.0"
     gridtolerance="10.0"
     objecttolerance="10.0"
     borderopacity="1.0"
     bordercolor="#666666"
     pagecolor="#ffffff"
     id="base"
     inkscape:zoom="4.2135417"
     inkscape:cx="99"
     inkscape:cy="96"
     inkscape:window-x="-4"
     inkscape:window-y="-4"
     inkscape:current-layer="svg2" />
  <path
     style="opacity:1;fill:#ffffff;fill-opacity:1;fill-rule:nonzero;stroke:#395475;stroke-width:1.70000005;stroke-linecap:round;stroke-linejoin:miter;stroke-miterlimit:4;stroke-dasharray:none;stroke-dashoffset:0;stroke-opacity:1"
     d="M 71.9375 6.84375 L 71.9375 51.09375 L 33.625 28.96875 L 8 73.375 L 46.3125 95.46875 L 8 117.59375 L 33.625 162.03125 L 71.9375 139.90625 L 71.9375 184.15625 L 123.25 184.15625 L 123.25 139.9375 L 161.53125 162.03125 L 187.1875 117.59375 L 148.875 95.5 L 187.1875 73.375 L 161.53125 28.96875 L 123.25 51.0625 L 123.25 6.84375 L 71.9375 6.84375 z "
     id="rect13822" />
  <path
     style="opacity:1;fill:#395475;fill-opacity:1;fill-rule:nonzero;stroke:none;stroke-width:1.70000005;stroke-linecap:round;stroke-linejoin:miter;stroke-miterlimit:4;stroke-dasharray:none;stroke-dashoffset:0;stroke-opacity:1"
     d="M 75.09375 10 L 75.09375 56.53125 L 34.78125 33.25 L 12.28125 72.21875 L 52.59375 95.5 L 12.28125 118.75 L 34.78125 157.71875 L 75.09375 134.4375 L 75.09375 181 L 120.09375 181 L 120.09375 134.46875 L 160.375 157.71875 L 182.875 118.75 L 142.5625 95.5 L 182.875 72.21875 L 160.375 33.25 L 120.09375 56.5 L 120.09375 10 L 75.09375 10 z "
     id="rect14795" />
  <path
     style="fill:#ffffff;fill-rule:evenodd;stroke:#395475;stroke-width:0.6;stroke-linecap:butt;stroke-linejoin:miter;stroke-opacity:1;fill-opacity:1;stroke-miterlimit:4;stroke-dasharray:none"
     d="M 92.517151,28.749341 C 92.408986,25.487473 95.364102,22.444786 98.522226,22.444786 C 100.78169,22.444786 103.56391,24.163507 103.49852,27.028713 C 102.70837,61.652668 100.60467,131.89502 99.809866,166.84929 C 99.785836,167.9063 98.454636,167.43783 98.406332,166.35356 C 96.861909,131.68636 93.680464,63.830863 92.517151,28.749341 z "
     id="path2161"
     sodipodi:nodetypes="csssss" />
  <path
     style="fill:#ffffff;fill-rule:evenodd;stroke:#395475;stroke-width:0.6;stroke-linecap:butt;stroke-linejoin:miter;stroke-opacity:1;fill-opacity:1;stroke-miterlimit:4;stroke-dasharray:none"
     d="M 94.036939,33.435356 C 96.542562,33.435356 97.667652,34.958914 99.217717,36.299367 C 100.71504,37.594206 101.88918,38.77889 101.88918,40.05277 C 101.88918,41.391534 100.90645,40.990382 99.865157,41.482074 C 99.316637,41.74108 99.365585,42.300792 98.469657,42.300792 C 96.316099,42.300792 95.45867,40.274406 92.51715,40.274406 C 90.093039,40.274406 86.944591,43.179145 86.944591,48.506596 C 86.944591,56.552685 90.047493,60.158311 93.720316,62.944591 L 94.100263,72.506596 C 90.174142,70.860159 80.042216,61.931473 80.042216,49.519789 C 80.042216,38.718116 87.055227,33.435356 94.036939,33.435356 z "
     id="path4102"
     sodipodi:nodetypes="cssssssccss" />
  <path
     style="fill:#395475;fill-rule:evenodd;stroke:none;stroke-width:1px;stroke-linecap:butt;stroke-linejoin:miter;stroke-opacity:1;fill-opacity:1"
     d="M 94.986808,36.126649 C 96.778096,35.842684 96.597917,36.918831 97.39314,37.614775 C 95.554706,37.669411 95.147378,36.898305 94.986808,36.126649 z "
     id="path5075"
     sodipodi:nodetypes="ccc" />
  <path
     style="fill:#ffffff;fill-rule:evenodd;stroke:#395475;stroke-width:0.6;stroke-linecap:butt;stroke-linejoin:miter;stroke-opacity:1;fill-opacity:1;stroke-miterlimit:4;stroke-dasharray:none"
     d="M 102.52243,66.934037 L 102.26913,76.05277 C 102.26913,81.62722 87.514512,91.407424 87.514512,101.38259 C 87.514512,109.06464 93.688655,113.98417 95.968338,115.12401 L 95.683377,107.08179 C 95.683377,107.08179 92.897098,105.20276 92.897098,102.01583 C 92.897098,97.506158 109.86807,85.891676 109.86807,77.002639 C 109.86807,70.699933 105.56201,68.348285 102.52243,66.934037 z "
     id="path8971"
     sodipodi:nodetypes="ccsccssc" />
  <path
     style="fill:#ffffff;fill-rule:evenodd;stroke:#395475;stroke-width:0.6;stroke-linecap:butt;stroke-linejoin:miter;stroke-opacity:1;fill-opacity:1;stroke-miterlimit:4;stroke-dasharray:none"
     d="M 101.35093,111.54617 C 101.35093,111.54617 107.14512,115.37689 107.14512,120.18997 C 107.14512,124.30746 103.98764,128.07412 100.25762,131.96931 C 95.900204,136.51968 94.980033,142.21601 97.551452,148.17942 L 97.773087,153.0554 C 95.905013,151.53561 92.960422,146.78869 92.960422,138.87071 C 92.960422,129.33988 101.12929,126.47258 101.12929,117.68866 L 101.35093,111.54617 z "
     id="path11880"
     sodipodi:nodetypes="cssccscc" />
  <path
     style="fill:#ffffff;fill-rule:evenodd;stroke:#395475;stroke-width:0.6;stroke-linecap:butt;stroke-linejoin:miter;stroke-opacity:1;stroke-miterlimit:4;stroke-dasharray:none"
     d="M 100.21108,151.25066 C 100.21108,151.25066 102.90238,152.69861 102.90238,156.47493 C 102.90238,160.02958 98.451601,163.27556 97.773087,163.75726 C 97.11579,164.2239 96.863869,163.61619 97.39314,163.12401 C 97.939619,162.61583 100.17942,159.61423 100.17942,156.15831 L 100.21108,151.25066 z "
     id="path12851"
     sodipodi:nodetypes="cszzcc" />
</svg>
